<svg viewBox="-30 50 600 300" clip-rule="evenodd" fill-rule="evenodd" stroke-linejoin="round" stroke-miterlimit="1.414" xmlns="http://www.w3.org/2000/svg"><path d="M481.627 223.809c0-6.233.748-15.208.748-25.679 0-19.446-7.978-26.676-29.668-26.676-10.47 0-19.695 1.496-25.43 3.99l.749 15.456c4.986-2.742 12.216-5.235 19.196-5.235 9.973 0 12.715 3.989 12.715 13.712v1.495h-3.241c-24.432 0-35.9 7.48-35.9 21.192 0 14.21 6.98 22.437 27.174 22.437 10.72 0 20.942-1.496 34.654-1.496-.997-5.235-.997-13.462-.997-19.196zm-28.421 7.479c-7.48 0-10.72-2.493-10.72-8.726 0-5.983 3.988-9.474 14.21-9.474h2.992c0 5.735-.25 12.715.249 17.452-1.745.499-4.238.748-6.731.748zm-188.476-.748c-12.217 0-18.699-6.233-18.699-16.205v-.499c2.244 0 6.482.25 8.976.25 21.69 0 32.659-6.732 32.659-21.44 0-12.715-9.225-20.943-28.92-20.943-24.183 0-33.656 10.72-35.9 29.917-3.49-.249-7.48-.249-12.715-.249v-3.241c0-19.446-7.978-26.676-29.667-26.676-10.471 0-19.696 1.496-25.43 3.99l.748 15.456c4.986-2.742 12.216-5.235 19.197-5.235 9.972 0 12.964 3.989 12.964 13.712v1.495h-3.241c-24.432 0-35.9 7.48-35.9 21.192 0 14.21 6.98 22.437 27.174 22.437 10.72 0 20.942-1.496 34.654-1.496-.997-5.734-.997-13.96-.997-19.446 0-2.991.249-6.482.249-10.47 5.734 0 9.972.249 12.715.249 1.994 22.936 13.96 31.163 38.393 31.163 8.975 0 18.2-1.496 23.185-3.74l-.747-15.457c-4.737 2.992-11.469 5.236-18.698 5.236zm-83.518.748c-7.48 0-10.72-2.493-10.72-8.726 0-5.983 3.988-9.474 14.21-9.474h2.992c0 5.735-.25 12.715.249 17.452-1.745.499-4.488.748-6.731.748zm64.57-29.668c0-9.723 2.992-16.953 11.967-16.953 4.986 0 8.476 2.743 8.476 7.48 0 6.731-4.487 9.972-13.96 9.972-2.245 0-4.738 0-6.483-.25zm166.039 9.225v-13.712c0-17.701-7.729-25.43-29.668-25.43-12.216 0-20.942 2.244-34.654 2.244.748 12.466.748 27.673.748 37.147 0 9.723-.249 26.925-.748 32.41h23.435c-.498-5.485-.997-21.69-.997-32.41 0-6.233 0-13.712.25-23.684 2.243-.748 5.235-1.496 8.476-1.496 8.227 0 10.97 3.74 10.97 14.46v10.47c0 9.724-.25 26.926-.749 32.41h23.435c0-5.484-.498-21.44-.498-32.41zm-73.795 16.953.997 15.457c-1.745.498-7.48 1.495-14.958 1.495-15.457 0-23.685-6.482-23.685-22.437 0-12.466.25-26.177.25-33.657h-7.978c.25-3.49 0-8.227 0-11.717 11.967-1.995 15.706-8.726 17.7-21.94h13.214c-.499 5.486-.748 13.214-.997 18.699h13.96v14.958h-14.21v27.175c0 10.47 2.244 13.462 9.225 13.462 2.493 0 5.235-.498 6.482-1.495zM71.267 165.222c2.992 0 5.734.997 7.978 3.24l12.964 12.964 12.964-12.964c2.244-2.243 4.986-3.24 7.978-3.24 2.742 0 5.734.997 7.978 3.24l15.955 15.956c4.488 4.488 4.488 11.468 0 15.956L92.21 245l-44.875-44.876c-4.488-4.487-4.488-11.468 0-15.955l15.955-15.956c2.244-1.994 4.987-2.991 7.978-2.991m414.847 6.481h12.216v2.494h-4.737v12.465h-2.991v-12.465h-4.737zm14.959 0h3.988l1.995 6.482c.499 1.995 1.496 5.735 1.496 5.735s.997-3.74 1.496-5.735l1.994-6.482h3.989v14.959h-2.742v-5.485c0-2.742.249-6.731.249-6.731s-.997 3.49-1.745 6.482l-1.745 5.734h-2.743l-1.745-5.734c-.997-2.992-1.745-6.482-1.745-6.482s.25 4.238.25 6.731v5.485h-2.743v-14.959z" fill="#7d3f98" fill-rule="nonzero"/></svg>