<svg viewBox="-75 -210 1200 600" xmlns="http://www.w3.org/2000/svg"><g fill="none" fill-rule="evenodd"><path d="M980.714 159.816c-5.412-1.172-19.45-12.788-26.522-20.296-7.08-7.506-35.816-41.77-35.816-92.924 0-19.236 3.54-34.726 9.728-45.518 15.036 7.976 30.176 12.2 52.61 12.2V26.36c-19.008 0 19.01-.004 0 0V13.278c22.436-.004 37.584-4.228 52.62-12.204 6.178 10.794 9.728 26.284 9.728 45.522 0 51.154-28.746 85.414-35.818 92.924-7.07 7.508-21.116 19.124-26.53 20.296M896.96 46.468h-44.006v-44h-69.932v44h-44V116.4h44v44h69.932v-44h44.006V46.468" fill="#FFFFFE"/><path d="M495.814 101.95h-35.152v-9.928c-.012-6.522 1.872-11.848 5.436-15.402 3.126-3.122 7.428-4.832 12.112-4.818 11.32.038 17.572 7.236 17.604 20.258v9.89Zm12.838-26.348c-7.51-6.642-17.982-10.152-30.298-10.152-10.97 0-21.92 5.028-30.044 13.794-8.68 9.366-13.478 22.2-13.512 36.136-.034 13.666 4.938 26.182 13.998 35.244 8.638 8.65 20.144 13.396 32.394 13.374 23.674-.042 36.964-17.554 39.296-33.814l.12-.844h-7.332l-.082.65c-1.67 13.184-12.888 27.182-30.386 27.148-13.972-.026-22.004-9.582-22.038-26.222V108.83h61.27l-.028-.762c-.46-14.112-4.954-25.038-13.358-32.466ZM316.644 142.69h-6.878l-.11.606c-.818 4.344-3.51 11.63-12.392 11.606-6.882-.018-10.386-4.832-10.422-14.31V74.526h22.644l-.004-.736-.004-5v-.738h-22.486V39.444l-.816.092c-5.306.574-16.074 1.402-21.672 1.392h-.744V68.04h-14.958v6.51h15.06v57.504c.018 21.188 9.092 31.936 26.962 31.94 20.514 0 24.832-15.642 25.666-20.438l.154-.866M60.374 42.872l21.71 61.99H40.05l20.324-61.99Zm174.744 112.074V96.472c.008-9.062-2.924-16.786-8.478-22.342-5.566-5.566-13.574-8.628-22.548-8.624-12.276.008-22.122 4.95-29.366 14.572l-.202-11.24-.014-.722h-36.852v6.4h14.478v80.438h-25.832L73.296 2.694l-.17-.496h-6.482l-52.03 152.76H0v6.388h43.334v-6.388H23.372l14.41-43.48h46.372l14.624 43.48h-20.18v6.388h110.606v-6.4h-14.438v-44.642c.04-26.634 14.248-36.298 23.784-36.294 9.238.006 13.928 5.988 13.934 17.786v63.15h-13.542v6.4h50.872v-6.4h-14.696Z" fill="#0067A5"/><path d="M416.982 154.946v-59.41c-.014-13.86-8.444-30.04-32.152-30.03-18.364.01-27.894 8.928-31.986 13.528V2.644H315.96v6.638h13.806v145.664h-14.918v6.4h52.248v-6.4h-14.252V109.73c.004-15.632 5.346-24.25 9.826-28.73 4.346-4.344 9.892-6.738 15.614-6.734 12.67.008 15.366 10.412 15.398 19.148v61.532h-14.254v6.4h52.25v-6.4h-14.696M693.286 154.946h-14.172v-62.99c-.028-16.326-11.21-26.46-29.172-26.45-16.986.01-26.238 8.464-30.546 14.14-4.736-9.236-13.876-14.148-26.58-14.14-12.122.008-22.982 4.498-30.22 12.304l-.198-8.976-.022-.718h-37.514v6.4h15.366v80.43h-15.146v6.4h51.054v-6.4h-13.054v-44.444c.434-12.92 1.032-21.24 5.64-27.622 3.988-5.302 10.328-8.604 16.566-8.604 7.684 0 10.39 5.798 10.676 6.458 1.946 3.678 1.946 10.038 1.946 16.186v58.026h-13.62v6.4h50.24v-6.4h-13.104v-44.444c.426-12.916 1.024-21.238 5.654-27.622 3.974-5.302 10.32-8.604 16.544-8.604 7.692 0 10.398 5.798 10.676 6.458 1.952 3.678 1.952 10.038 1.952 16.186v58.026h-13.546v6.4h51.32v-6.4h-.74M711.262 148.266c1.91 0 4.572.318 4.572-2.254 0-1.908-1.588-2.16-3.24-2.16h-3.748v4.414h2.416Zm-2.416 7.656h-1.744v-13.66h5.876c3.554 0 4.766 1.336 4.766 3.782 0 2.636-1.846 3.622-4.226 3.81l4.068 6.068h-1.974l-3.846-6.068h-2.92v6.068Zm12.744-6.764c0-5.816-4.196-10.006-10.006-10.006-5.848 0-10.074 4.19-10.074 10.006 0 5.876 4.226 10.07 10.074 10.07 5.81 0 10.006-4.194 10.006-10.07Zm-21.988 0c0-6.546 5.372-11.912 11.982-11.912 6.572 0 11.906 5.366 11.906 11.912 0 6.604-5.334 11.976-11.906 11.976-6.61 0-11.982-5.372-11.982-11.976ZM872.518 148.142c1.91 0 4.572.318 4.572-2.256 0-1.906-1.588-2.158-3.242-2.158h-3.746v4.414h2.416Zm-2.416 7.656h-1.744v-13.66h5.876c3.554 0 4.766 1.332 4.766 3.778 0 2.64-1.846 3.622-4.224 3.816l4.068 6.066h-1.974l-3.848-6.066h-2.92v6.066Zm12.742-6.766c0-5.814-4.194-10.006-10.006-10.006-5.846 0-10.07 4.192-10.07 10.006 0 5.878 4.224 10.07 10.07 10.07 5.812 0 10.006-4.192 10.006-10.07Zm-21.986 0c0-6.544 5.372-11.914 11.98-11.914 6.574 0 11.908 5.37 11.908 11.914 0 6.606-5.334 11.976-11.908 11.976-6.608 0-11.98-5.37-11.98-11.976ZM848.102 49.706C840.32 42.32 829.8 37.78 818.22 37.78c-11.978 0-22.826 4.876-30.668 12.738l-4.556-4.224V2.288h70.008l.014 44.002-4.916 3.416" fill="#0067A5"/><path d="M826.49 57.324c0-3.492 4.578-4.038 2.376-11.744 6.788 1.468 12.57 6.708 17.614 11.744h-19.99M809.24 57.324h-19.992c4.402-5.874 10.826-10.276 17.604-11.742-2.2 7.704 2.388 8.254 2.388 11.742M854.542 72.728c2.578 14.308-1.652 24.578-8.248 32.836 0 0-13.396-25.312-14.864-28.066-1.458-2.75 0-2.932 1.646-3.114 1.296 0 21.466-1.656 21.466-1.656M781.172 72.728s20.182 1.656 21.466 1.656c1.644.182 3.12.364 1.644 3.114-1.46 2.754-14.856 28.066-14.856 28.066-6.602-8.254-10.82-18.528-8.254-32.836M833.46 115.104c-4.214 2.2-9.542 3.298-15.598 3.302-6.052 0-11.372-1.102-15.59-3.302 0 0 14.31-22.566 15.59-22.566 1.284 0 15.598 22.566 15.598 22.566" fill="#0067A5"/><path d="M842.306 117.264s-19.492-28.21-20.596-30.048c-1.098-1.828-2.016-2.928-3.848-2.928-1.836 0-2.756 1.1-3.852 2.928-.976 1.622-16.678 24.422-20.338 29.724a43.185 43.185 0 0 0 24.562 7.616l-35.238 35.936v-44.014l8.082-1.474c2.784-5.228 14.922-27.836 18.708-34.936 4.224-7.888-.368-11.19-6.602-11.556-5.788-.34-15.218-1.902-25.78-2.126a43.447 43.447 0 0 0-2.57 14.78c0 13.682 6.35 25.89 16.244 33.838l-8.082 1.474h-44.008l-.008-70.184h44.016l4.556 4.224a43.76 43.76 0 0 0-8.704 12.468l29.108.02c2.886 0 5.216-.84 6.56-2.222 1.744-1.774 1.866-4.426-.506-7.318-4.224-5.136-.562-10.088 3.852-9.902 4.402.184 8.064 4.766 3.848 9.902-2.372 2.892-2.244 5.544-.514 7.318 1.354 1.382 3.676 2.222 6.566 2.222l29.886-.008a43.487 43.487 0 0 0-9.546-13.292l4.916-3.416h43.998v70.188h-43.998l-8.19-1.028c10.212-7.942 16.792-20.342 16.792-34.284 0-5.22-.912-10.218-2.606-14.856-10.854.168-20.56 1.856-26.48 2.202-6.238.362-10.824 3.668-6.608 11.552 4.23 7.89 18.352 34.282 18.902 35.386l8.19 1.028v44.014h-70.022l35.238-35.936a43.18 43.18 0 0 0 24.072-7.292" fill="#0067A5"/><g fill="#0067A5"><path d="M1023.602 148.142c1.91 0 4.574.318 4.574-2.256 0-1.906-1.588-2.158-3.242-2.158h-3.746v4.414h2.414Zm-2.414 7.656h-1.744v-13.66h5.876c3.554 0 4.766 1.332 4.766 3.778 0 2.64-1.846 3.622-4.226 3.816l4.068 6.066h-1.974l-3.846-6.066h-2.92v6.066Zm12.742-6.766c0-5.814-4.194-10.006-10.006-10.006-5.846 0-10.072 4.192-10.072 10.006 0 5.878 4.226 10.07 10.072 10.07 5.812 0 10.006-4.192 10.006-10.07Zm-21.986 0c0-6.544 5.372-11.914 11.98-11.914 6.574 0 11.908 5.37 11.908 11.914 0 6.606-5.334 11.976-11.908 11.976-6.608 0-11.98-5.37-11.98-11.976ZM980.714 159.816c-5.412-1.172-19.45-12.788-26.522-20.296-7.08-7.506-35.816-41.77-35.816-92.924 0-19.236 3.54-34.726 9.728-45.518 15.036 7.976 30.176 12.2 52.61 12.2V26.36c-19.008 0-36.884-4.614-46.206-9.564-3.418 5.166-4.958 19.482-4.958 29.338 0 46.148 24.01 75.772 27.294 79.778 4.42 5.394 20.886 20.212 23.87 20.918 2.992-.706 19.46-15.524 23.874-20.918 3.29-4.01 27.29-33.634 27.29-79.782 0-9.86-1.536-24.172-4.954-29.334-9.318 4.946-27.2 9.56-46.21 9.564V13.278c22.436-.004 37.584-4.228 52.62-12.204 6.178 10.794 9.728 26.284 9.728 45.522 0 51.154-28.746 85.414-35.818 92.924-7.07 7.508-21.116 19.124-26.53 20.296"/></g><path d="M974.362 44.208s-.37 1.064-1.11 1.154c-.714.082-1.182-.228-1.666-.534-1.298-.812-2.116-.956-2.116-.956s2.622-.904 4.892.336" fill="#0067A5"/><path d="M985.102 48.82c1.468-.714 5.158-4.042 6.382-4.864 2.436-1.638 6.082 1.474 3.76 3.73-6.112 5.948-9.032 9.004-10.556 10.628-.086.092-.84 1.622-1.566 2.04l.214 1.168c.682.174 1.34.412 1.958.564 14.85 3.638 10.242 20.712-.834 20.548l-1.68 1.418-6.93-.648-1.958-4.396-.548 1.988 1.53 3.558c2.478.164 3.404.1 6.332.476.52.064 1.432.274 3.106.634 11.878 2.544 9.066 16.246-.506 17.204.022-1.378.056-2.856.192-4.348l-1.274.684c-.022 1.652.084 1.61.056 3.214-.008.834.008 2.604 0 3.412-.868-.124-2.066-.69-2.948-1.032-1.332-.508-2.038-1.19-2.822-1.614-.012-.248-.04-1.264-.056-1.52l.008-1.852-1.132.218c.028.954.17 1.804.25 3.044-1.704.878-.42 1.064.362 1.33.846.284 2.904 1.316 4.086 1.83.942.402 2.88 1.136 3.62 1.462 6.232 2.7 5.584 10.27-.784 13.6l-.946.622c-.078 4.844-.45 9.314-.492 9.758 0 0-2.066.948-3.734-.168 0-.67-.084-4.174-.156-7.028l-1.038-.282c-1.39 1.19-1.226 3.482-1.888 4.486-.15.212-.406.396-.748.226-.904-.468-1.024-2.394-1.032-2.866-.03-2.44 1.588-5.414 3.568-6.188l.1 4.342 1.038.282c-.056-2.916-.248-7.846-.428-11.94.73.282.742.202 1.59.452 1.324.384 2.208 1.186 2.6 1.702.84.854.654 5.244.62 7.224l.946-.622-.008-5.332c.008-1.184-.432-2.056-1.146-2.738-.568-.534-1.026-.932-2.25-1.562-.67-.346-1.182-.516-2.784-.922-11.118-2.8-8.384-13.234-1.56-13.28.07.904.2 1.814.214 2.568l1.132-.218-.142-2.386c-.058-.726-.122-2.98-.094-3.792 1.02.044 1.538.182 2.758.314 2.214.254 2.228-.076 3.348.23-.008.34.084 1.678.048 2.112-.048.874-.142 2.044-.156 2.914l1.274-.684c.064-.916.064-1.208.322-1.866.796-.862 2.406-1.182 1.224-2.892-.662-.954-3.084-.73-5.292-.974-1.174-.13-2.322-.062-6.16-.788-8.86-1.696-8.212-13.03-2.48-15.256l1.732 4.252.548-1.988-1.838-4.49 2.806-4.528 7.912.616.008 13.446 1.68-1.418c-1.06-4.454-.454-8.574-.454-8.574 3.688-.39 1.01-4.27-.008-4.458-1.432-.272-2.584-.264-5.036-.502-1.58-.15-4.272-.34-5.662-.524-23.666-3.062-20.19-24.436-8.674-26.348 8.362-1.392 12.862 1.806 14.288 5.216 0 0-2.402 1.13-4.352.902-3.84-.45-6.138-.15-6.138-.15 1.28 1.178 5.524 1.852 7.254 3.35-1.942.864-4.166.794-6.246.534a22.434 22.434 0 0 1-5.182-1.288c-.656 2.14-2.06 6.702 8.482 8.834 1.446.292 3.254.81 5.17.954 2.016.218 3.824.536 5.434.942l-.214-1.168-8.546-1.446c-.308-1.774-.412-3.92-.342-5.894 1.752-.174 2.18-.392 3.212-1.232l-.378-1.16c2.572.818 4.9 1.138 5.764 1.038l-1.106-1.204c-1.182-.206-2.436-.81-3.932-1.294 1.952-.296 2.622-.846 2.622-.846s-.214-.932-.996-2.442c-1.34-2.542-4.374-4.038-4.374-4.038-.556-.916-.342-1.52-.356-2.002-.086-3.008 1.624-2.354 4.77-1.32l1.254-7.24c-17.106 0-34.954-2.514-43.344-6.964-3.092 4.65-3.696 16.618-3.446 25.48 1.338 45.756 22.306 68.202 25.268 71.804 3.968 4.858 18.838 18.764 21.522 19.47 2.694-.706 17.556-14.612 21.532-19.47 2.954-3.602 23.93-26.048 25.254-71.806.262-8.864-.356-20.832-3.44-25.478-8.378 4.45-26.238 6.96-43.346 6.964l-1.254 7.24c.614.252.928.666 1.176.766 2.024.832 3.94 2.068 3.874 2.662 0 0-.15 7.244.592 6.878" fill="#0067A5"/></g></svg>