<svg xmlns="http://www.w3.org/2000/svg" viewBox="-75 -10 210 105"><defs><clipPath clipPathUnits="userSpaceOnUse" id="a"><path d="M0 0h594v774H0z"/></clipPath></defs><g clip-path="url(#a)" transform="matrix(1.25 0 0 -1.25 -610.293 153.141)"><path d="M508.998 103.663c1.165 0 8.73-3.339 8.73-15.333 0-5.732-1.93-10.51-3.068-10.51-.502 0-.693.502-.693 1.466 0 2.122.748 4.002.748 8.532 0 8.746-3.602 12.275-5.215 14.261-.476.588-.837.971-.837 1.316 0 .141.1.268.335.268m19.067-.268c0-.345-.361-.728-.837-1.316-1.612-1.986-5.213-5.515-5.213-14.26 0-4.53.745-6.41.745-8.533 0-.964-.19-1.466-.691-1.466-1.14 0-3.07 4.778-3.07 10.51 0 11.994 7.567 15.333 8.734 15.333.233 0 .332-.127.332-.268" fill="#0982c6"/><path d="M515.602 101.262c0-1.566 1.236-2.834 2.76-2.834 1.53 0 2.767 1.268 2.767 2.834 0 1.568-1.237 2.835-2.766 2.835-1.525 0-2.761-1.267-2.761-2.835" fill="#f8971f"/><path d="M504.015 105.743c-1.444.653-2.525 1.962-2.701 3.231 1.072.706 2.765.76 4.21.107 1.512-.684 1.866-1.84 1.875-2.857-.77-.667-1.87-1.166-3.384-.48m4.143 7.632c-.93 1.428-1.146 3.236-.571 4.485 1.377.018 2.94-.916 3.868-2.343.97-1.495.62-2.745.038-3.669-1.083-.156-2.366.031-3.335 1.527m2.15-7.562c-1.146.971-1.79 2.444-1.62 3.647 1.16.364 2.719-.028 3.865-.998 1.2-1.019 1.219-2.163.962-3.093-.875-.404-2.007-.572-3.207.444m3.505 3.655c-.493 1.593-.215 3.357.662 4.384 1.303-.35 2.527-1.653 3.02-3.247.516-1.669-.15-2.753-.945-3.469-1.06.142-2.223.662-2.737 2.332m-6.036-11.637c-1.141-.222-2.345.105-2.991.79.34.88 1.337 1.632 2.48 1.854 1.196.232 1.899-.31 2.337-.917-.18-.728-.626-1.493-1.826-1.727m-3.016 3.38c-1.3.141-2.484.888-2.95 1.84.657.83 1.976 1.308 3.277 1.167 1.362-.148 1.937-.964 2.206-1.76-.435-.722-1.17-1.395-2.533-1.247m-.116 9.654c-1.02.865-1.592 2.173-1.441 3.243 1.03.325 2.416-.025 3.436-.887 1.065-.906 1.085-1.923.856-2.75-.78-.36-1.785-.509-2.851.394m6.95 6.861c-.411 1.328-.177 2.8.552 3.654 1.088-.294 2.109-1.379 2.52-2.705.43-1.392-.127-2.294-.79-2.894-.884.12-1.85.553-2.281 1.945m-17.08-34.46c0-.036.023-.065.069-.065.042 0 .119.035.202.065 4.082 1.464 10.108 3.26 18.566 3.808.01.076.06.453.06.743 0 .612-.072 1.251-.091 1.357-8.667-.795-14.648-3.308-18.578-5.723-.16-.099-.228-.122-.228-.185m34.815 22.957c.009 1.016.362 2.173 1.874 2.857 1.443.653 3.139.6 4.21-.107-.177-1.269-1.257-2.578-2.7-3.23-1.515-.686-2.614-.187-3.384.48m-4.094 5.625c-.581.924-.932 2.174.039 3.67.927 1.426 2.49 2.36 3.867 2.342.574-1.249.356-3.057-.57-4.485-.97-1.496-2.255-1.683-3.336-1.527m-2.024-6.479c-.255.93-.236 2.074.964 3.093 1.147.97 2.704 1.362 3.865.998.168-1.203-.475-2.676-1.621-3.647-1.198-1.016-2.333-.848-3.208-.444m-3.035 1.767c-.795.716-1.46 1.8-.944 3.47.49 1.593 1.719 2.895 3.02 3.246.878-1.027 1.156-2.79.663-4.384-.516-1.67-1.676-2.19-2.74-2.332m6.95-7.578c.439.606 1.139 1.15 2.337.917 1.144-.222 2.139-.975 2.48-1.854-.645-.685-1.85-1.012-2.993-.79-1.198.234-1.647 1-1.824 1.727m2.308 2.9c.27.796.845 1.612 2.207 1.76 1.3.141 2.618-.338 3.275-1.168-.465-.95-1.65-1.698-2.948-1.839-1.364-.148-2.101.525-2.534 1.247m-.202 8.013c-.23.827-.211 1.844.857 2.75 1.02.862 2.405 1.212 3.435.887.15-1.07-.422-2.378-1.441-3.243-1.066-.903-2.073-.755-2.851-.394m-6.382 5.31c-.663.6-1.218 1.502-.788 2.894.41 1.326 1.432 2.411 2.515 2.705.735-.855.965-2.326.556-3.654-.431-1.392-1.398-1.825-2.283-1.945m19.133-32.33c-3.928 2.415-9.91 4.928-18.577 5.723a11.208 11.208 0 0 1-.091-1.357c0-.29.05-.667.06-.743 8.457-.549 14.482-2.344 18.566-3.808.084-.03.163-.065.2-.065.049 0 .072.03.072.065 0 .063-.071.086-.23.185m-23.62 30.934c-1.122.523-2.228 1.494-2.228 3.513 0 1.928.91 3.782 2.229 4.614 1.319-.832 2.229-2.686 2.229-4.614 0-2.019-1.104-2.99-2.23-3.513" fill="#56b948"/><path d="M503.223 72.854c0-.987.813-1.787 1.82-1.787 1.004 0 1.818.8 1.818 1.787 0 .986-.814 1.785-1.819 1.785-1.006 0-1.819-.799-1.819-1.785m14.202-9.405c0-2.82-1.103-3.995-2.698-3.995-1.609 0-2.51 1.365-2.51 3.76 0 2.443 1.398 4.464 3.987 4.464.534 0 .907-.053 1.221-.129zm.155-4.626v-.916c0-2.514-1.548-3.49-3.469-3.49-1.727 0-3 .52-3.403.66V52.59c.328-.088 1.73-.529 3.731-.529 3.553 0 5.927 1.466 5.927 6.492v10.845c-.456.116-2.124.558-4.044.558-4.984 0-7.126-3.34-7.126-6.954 0-3.322 1.672-5.927 4.873-5.927 2.111 0 3.126 1.275 3.456 1.748zm-16.947 1.534c-.8-.375-2.08-.622-3.319-.622-3.379 0-5.867 2.417-5.867 6.1 0 3.658 2.471 6.104 5.867 6.104 1.683 0 2.881-.412 3.32-.62v2.632c-.739.274-1.938.551-3.632.551-5.244 0-8.768-3.625-8.768-8.668 0-4.766 3.243-8.663 8.768-8.663 1.62 0 2.84.257 3.631.553zm44.497 3.092c0-2.82-1.104-3.995-2.698-3.995-1.61 0-2.516 1.365-2.516 3.76 0 2.443 1.405 4.464 3.992 4.464a5.09 5.09 0 0 0 1.222-.129zm3.311-6.099c-.095.687-.37 2.5-.37 4.06v7.988c-.46.116-2.129.558-4.045.558-4.986 0-7.125-3.34-7.125-6.954 0-3.322 1.666-5.927 4.87-5.927 2.34 0 3.388 1.513 3.784 2.32h.077c.03-.383.135-1.685.17-2.045zm-41.927 12.291h-2.94v-12.29h2.94zm17.181-12.29v8.504c0 1.14-.104 3.327-.134 3.823h2.642l.124-1.729h.055c.307.484 1.296 2.007 3.601 2.007 2.783 0 4.33-2.045 4.33-4.594V57.35h-2.939v7.431c0 1.565-.87 2.748-2.368 2.748-1.545 0-2.368-1.248-2.368-2.748v-7.43zm29.061 2.112c-.075.043-.198.063-.363.063h-.257v-.615h.271a.82.82 0 0 1 .287.036c.117.047.176.135.176.267 0 .124-.038.207-.114.249m-.324.267c.211 0 .367-.02.465-.06.177-.075.264-.217.264-.431 0-.153-.055-.267-.165-.337a.632.632 0 0 0-.246-.082.417.417 0 0 0 .293-.168.466.466 0 0 0 .092-.263v-.125c0-.04 0-.082.003-.126a.267.267 0 0 1 .016-.09l.009-.02h-.28l-.004.017c-.001.005-.004.012-.004.019l-.006.054v.135c0 .196-.055.327-.161.39-.064.035-.176.056-.334.056h-.237v-.671h-.3v1.702zm-.914.087a1.286 1.286 0 0 1-.387-.944c0-.371.129-.69.387-.951a1.28 1.28 0 0 1 .945-.394c.37 0 .686.132.946.394.257.26.387.58.387.95s-.13.685-.387.945c-.263.263-.578.393-.946.393s-.683-.13-.944-.393m2.042-2.043a1.49 1.49 0 0 0-1.098-.456c-.43 0-.796.152-1.097.456-.3.303-.451.67-.451 1.1 0 .428.153.793.454 1.096.302.302.668.453 1.094.453.43 0 .796-.151 1.098-.453.304-.301.455-.667.455-1.095a1.5 1.5 0 0 0-.455-1.101" fill="#0982c6"/></g></svg>