<svg viewBox="-5 50 200 100" xmlns="http://www.w3.org/2000/svg"><g fill-rule="evenodd" clip-rule="evenodd" fill="#367ca8"><path d="M43.623 83.743c-.575-.479-1.246-.958-1.917-1.15l-1.15 22.519 5.558-15.523c.575-2.397-.766-4.409-2.491-5.846zm-9.199-1.342 3.258 22.423 3.258-22.423c-1.917-.67-4.407-.766-6.516 0zm-2.683 1.342c-1.821 1.438-3.066 3.45-2.587 5.75l5.558 15.523-1.054-22.423c-.671.192-1.438.671-1.917 1.15zm-11.306 2.108c3.737 6.516 7.57 13.606 11.211 19.834-1.246-5.461-2.587-14.564-4.503-17.152-2.205-3.066-6.708-2.682-6.708-2.682zm-6.612 3.258 15.235 17.727-9.39-20.889c-2.491.095-4.6 1.342-5.845 3.162zM45.731 93.9l-2.491 12.168c3.258-5.652 6.516-11.21 9.678-16.959-3.067.287-6.133 1.437-7.187 4.791zm8.049-4.791-8.049 18.014 14.182-15.427c-1.629-1.725-3.738-2.491-6.133-2.587zm-41.969 8.049c4.983 3.832 9.965 7.762 14.948 11.594L13.344 89.78c-1.246 2.108-1.629 4.599-1.533 7.378zM61.637 93.9a6.308 6.308 0 0 0-1.15-1.629l-12.265 16.672a424.213 424.213 0 0 0 14.182-11.02c.096-1.437-.096-2.873-.767-4.023zm-49.731 11.02 12.936 5.939c-4.312-4.311-8.624-8.432-12.936-12.648v6.709zm50.498.383V99.17l-12.265 11.979c4.216-1.919 8.049-3.835 12.265-5.846zm-50.593 5.556c3.929.863 8.241 1.918 11.786 2.684l-11.786-7.762v5.078zm50.593.289v-4.695c-3.641 2.395-7.474 4.791-10.828 7.186l10.828-2.491zm-50.593 5.557h11.498l-11.498-4.887v4.887zm50.593 0v-4.504c-3.737 1.629-6.995 2.971-10.54 4.504h10.54z"/><path d="M58.475 83.168c.191-6.803-9.965-6.899-9.773 0-.096 6.324 10.061 6.612 9.773 0zM25.8 79.623c.288-6.899-10.349-6.611-9.965 0-.383 6.899 10.636 6.995 9.965 0zm11.882 1.341c4.024.096 5.558-2.779 5.653-5.558.192-4.216-2.491-5.941-5.653-5.941s-5.653 1.821-5.558 5.941c.096 2.301 1.054 5.462 5.558 5.558zm57.684 15.907h2.204V84.126h-2.204v12.745zm-4.216-3.642 1.246 3.642h2.299l-4.408-12.745h-2.778l-3.737 10.828-3.641-4.6 4.887-6.228H82.43l-4.504 6.036v-6.036h-2.204v12.745h2.204v-6.229l4.695 6.229h2.587l1.246-3.642h4.696zm-2.396-7.091 1.82 5.271h-3.545l1.725-5.271zm22.613 27.022-2.203-9.295h-3.93v12.84h2.205v-10.924l2.779 10.924h2.299l2.779-10.924v10.924h2.107v-12.84h-3.736l-2.3 9.295zm11.596-9.295-4.408 12.84h2.203l1.15-3.736h4.695l1.246 3.736h2.299l-4.408-12.84h-2.777zm-.481 7.379 1.725-5.367 1.82 5.367h-3.545zm16.674 2.49-5.078-9.869h-2.971v12.84h2.107v-9.678l5.078 9.678h2.971v-12.84h-2.107v9.869zm41.969 1.055h-5.27v-3.545h3.832v-1.918h-3.832v-3.545h4.791v-1.916h-6.996v12.84h7.475v-1.916zm-20.219-10.924h-.383v9.965l-5.078-9.965h-2.971v10.924h-6.707v-3.545h3.928v-1.918h-3.928v-3.545h4.791v-1.916h-6.996v12.84h11.019v-9.773l5.08 9.773h2.969v-10.924h3.93v10.924h2.203v-10.924h3.834l-.096-1.916h-11.595zm-58.834 6.42c.672-.67 1.246-1.533 1.246-2.779 0-1.15-.574-2.107-1.246-2.682-.766-.672-1.82-.959-3.736-.959h-3.641v10.924h-6.803v-3.545h3.929v-1.918h-3.929v-3.545h4.791v-1.916h-6.995v12.84h11.211v-5.461h1.054c1.055 1.629 3.258 5.461 3.258 5.461h2.588l-3.451-5.654c.767-.096 1.246-.383 1.724-.766zm-5.173-.861v-3.643h1.82c1.727 0 2.396.672 2.396 1.725 0 1.246-.67 1.918-2.396 1.918h-1.82zm22.997-17.92h1.148c.959 1.533 3.162 5.367 3.162 5.367h2.588l-3.449-5.559c.766-.191 1.342-.479 1.725-.862.67-.575 1.246-1.533 1.246-2.683 0-1.245-.48-2.108-1.246-2.683-.768-.671-1.82-.958-3.641-.958h-3.738V95.05h-6.803v-3.641h3.93v-1.821h-3.93v-3.641h4.887v-1.82h-6.994v12.745h11.115v-5.368zm0-2.012v-3.545h1.916c1.629 0 2.299.671 2.299 1.82 0 1.246-.67 1.821-2.299 1.821h-1.916v-.096zm-36.795 15.332c-.767-.672-1.821-.959-3.642-.959h-3.737v12.84h2.204v-5.27h1.533c1.821 0 2.875-.287 3.642-.959.67-.67 1.245-1.629 1.245-2.875a3.616 3.616 0 0 0-1.245-2.777zm-3.354 4.696h-1.821v-3.738h1.821c1.725 0 2.396.768 2.396 1.82 0 1.15-.767 1.918-2.396 1.918zm27.597-16.291c0-1.82-1.15-2.97-3.354-3.833-1.725-.575-2.588-1.054-2.588-2.108 0-.767.768-1.629 2.396-1.629 1.053 0 2.203.383 2.682.671v-1.821c-.479-.287-1.629-.575-2.682-.575-2.779 0-4.6 1.533-4.6 3.545 0 1.917 1.438 2.97 3.545 3.737 1.629.575 2.395 1.15 2.395 2.204 0 1.054-.957 1.821-2.49 1.821-1.15 0-2.684-.384-3.449-.959v2.012c.67.383 2.012.768 3.354.768 3.258 0 4.791-1.82 4.791-3.833zm75.314 20.792c0-1.244.959-2.203 2.203-2.203 1.246 0 2.205.959 2.205 2.203a2.17 2.17 0 0 1-2.205 2.205c-1.244.001-2.203-.958-2.203-2.205zm2.203 2.684c1.438 0 2.684-1.15 2.684-2.684s-1.246-2.682-2.684-2.682-2.682 1.148-2.682 2.682 1.245 2.684 2.682 2.684zm-.574-2.492h.574l.768 1.342h.574l-.959-1.342c.48-.096.863-.287.863-.861s-.383-.863-1.15-.863h-1.148v3.066h.479v-1.342h-.001zm0-.383v-.957h.67c.287 0 .672.096.672.479 0 .479-.385.479-.768.479h-.574v-.001z"/></g></svg>