<svg version="1.1" id="layer" xmlns="http://www.w3.org/2000/svg" x="0" y="0" viewBox="0 175 650 325" style="enable-background:new 0 0 652 652" xml:space="preserve"><style>.st0{fill:#060e9f}.st1{fill:#778692}</style><path class="st0" d="M99 316.3h20.3v2.7c-5.5.3-6 1.3-6 5.7v36.5c0 7.9 4.5 11.9 10.8 11.9 7.2 0 11.6-4.6 11.6-12.1v-35.5c0-4.4-1.3-6.3-6.5-6.6v-2.7h16.2v2.7c-5.2.3-6.5 2.2-6.5 6.6v33.6c0 10.5-4.6 16.7-16.4 16.7-11.9 0-17.4-6.4-17.4-17v-34.1c0-4.4-.5-5.4-6-5.7v-2.7zM144.2 374.5v-2.7c4.1-.2 5.4-1.7 5.4-4.2v-26.5c0-3.7-1-4.3-5.6-4.4V334l12.4-.6v8.2h.2c2.3-4.7 5.6-8.7 11.4-8.7 7 0 10.3 4.6 10.3 12v22.5c0 2.9 1.2 4.1 5.2 4.2v2.7H171v-30.2c0-5.6-2.1-7.5-5-7.5-4.5 0-9.1 5.9-9.1 14.2v16.4c0 2.5 1.4 4.1 5.4 4.2v2.7h-18.1zM185.4 374.5v-2.7c4.1-.2 5.4-1.7 5.4-4.2v-27c0-3.6-1-4.2-5.4-4.4v-2.7l12.7-.5v34.6c0 2.5 1.4 4.1 5.4 4.2v2.7h-18.1zm12.7-53.6c0 3.2-1.8 5.4-4.3 5.4s-4.3-2.2-4.3-5.4 1.8-5.4 4.3-5.4c2.6 0 4.3 2.2 4.3 5.4M216.6 318.4V334h10.2v3.2h-10.2v29.9c0 3.7 1.3 5.3 3.6 5.3 2.8 0 4.9-1.8 4.9-10.8v-2.4h2.7v4c0 8.6-3.1 12.4-9.5 12.4-5.6 0-9-3.5-9-10.3v-28H204v-2.5c6.1-2.5 9.3-5.4 9.8-16.3h2.8zM239.2 350.8c0-10.9 3.2-15.1 8-15.1 4.5 0 7 4.2 7 15.1h-15zm23.4 3.2c0-12.2-5.9-21-15.3-21-9.6 0-16.3 8.8-16.3 21.2 0 10.6 7 21.3 17.4 21.3 9.5 0 13.6-7.4 14.4-14.9l-2.7-.5c-.8 5.8-3.5 12.2-10.8 12.2-5.7 0-10-6.5-10-18.3h23.3zM275.1 354.5c0-13.1 3-18.3 7.7-18.3 5.2 0 8.3 6.3 8.3 18.3 0 14.6-4.5 18.3-9 18.3-4.2 0-7-5.2-7-18.3m10.5-35.5c4.4.2 5.5.8 5.5 4.4v15.2l-.2.1c-1.7-3.3-4.6-5.7-8.5-5.7-8.9 0-15.6 9.1-15.6 21.4 0 13.3 7 21.1 14.6 21.1 5.2 0 8-3 9.8-7h.2v6l11.9-.5v-2.7c-3.4.1-4.9-1.3-4.9-5.9v-49.7l-12.8.5v2.8zM305.4 374.5v-2.7c5.1-.3 5.9-1.4 5.9-5.8v-41.3c0-4.4-.9-5.4-5.9-5.7v-2.7h20.5v2.7c-5.2.3-6.3 1.3-6.3 5.7v17.6h18.3v-17.6c0-4.4-1-5.4-6.3-5.7v-2.7h20.5v2.7c-5.1.3-5.9 1.3-5.9 5.7V366c0 4.4.9 5.4 5.9 5.8v2.7h-20.5v-2.7c5.2-.3 6.3-1.4 6.3-5.8v-20.5h-18.3V366c0 4.4 1 5.4 6.3 5.8v2.7h-20.5zM361.7 350.8c0-10.9 3.2-15.1 8-15.1 4.5 0 7 4.2 7 15.1h-15zm23.4 3.2c0-12.2-5.9-21-15.3-21-9.6 0-16.4 8.8-16.4 21.2 0 10.6 6.9 21.3 17.5 21.3 9.5 0 13.6-7.4 14.4-14.9l-2.7-.5c-.8 5.8-3.5 12.2-10.8 12.2-5.7 0-10-6.5-10-18.3h23.3zM406.9 357.7c0 9.6-3.9 14.7-8.2 14.7-2.6 0-4.7-2.2-4.7-6.7 0-7.2 6.1-10.4 12.9-12.8v4.8zm11.5 5.1c-.2 6.1-.8 8-2.5 8-1.2 0-1.8-1.1-1.8-3.6v-23.6c0-6.3-3.6-10.7-13.1-10.7-7.4 0-12.8 4.6-12.8 10.3 0 3.4 1.7 5.1 4.1 5.1s4.2-1.9 4.2-4.9c0-2.5-.8-4.5-3.6-4.7 1.8-2.1 4.2-3.1 7.2-3.1 4.5 0 6.7 2.1 6.7 7v6.9c-7.3 2.7-20.6 6.7-20.6 16.4 0 5.6 3.8 9.6 10.3 9.6 5.9 0 8.5-2.8 10.5-6.6h.2c.5 4.6 2.8 6.6 6.9 6.6 5.2 0 7-3.8 7-12.7h-2.7z"/><path class="st0" d="M420 374.5v-2.7c4.1-.2 5.4-1.7 5.4-4.2v-44.1c0-2.9-1.4-4.4-5.6-4.6v-2.7l12.9-.5v51.8c0 2.5 1.4 4.1 5.4 4.2v2.7H420zM450.4 318.4V334h10.2v3.2h-10.2v29.9c0 3.7 1.3 5.3 3.6 5.3 2.8 0 4.9-1.8 4.9-10.8v-2.4h2.7v4c0 8.6-3.1 12.4-9.5 12.4-5.6 0-9-3.5-9-10.3v-28h-5.3v-2.5c6.1-2.5 9.3-5.4 9.8-16.3h2.8z"/><path class="st0" d="M461.3 374.5v-2.7c4.1-.2 5.4-1.7 5.4-4.2v-44.2c0-3.6-1-4.2-5.6-4.4v-2.6l12.9-.5v24.9h.2c1.7-3.7 4.9-7.6 10.6-7.6 6.5 0 10.6 4.6 10.6 12v22.5c0 2.5 1.4 4.1 5.3 4.2v2.7h-12.5v-29.7c0-5.9-2.1-7.9-5.2-7.9-4.2 0-8.9 5.6-8.9 13.7v16.9c0 2.5 1.4 4.1 5.4 4.2v2.7h-18.2zM532.1 360.5c-.8 8-4.5 15.2-13.8 15.2-8.6 0-16.5-7.7-16.5-20.2 0-10.6 7.3-22.5 17.6-22.5 7.2 0 11.8 4.5 11.8 11.1 0 4.1-1.3 6.3-4.3 6.3-2.4 0-4-2-4-5.1 0-3.6 1.3-5.1 3.5-5.1.6 0 .9.3 1.3.3l.2-.2c-1.3-3.1-4-4.7-7.1-4.7-6.3 0-10.6 6.4-10.6 18.4 0 14.3 4.4 18.4 9.4 18.4 6.9 0 9.1-6.3 10-12.3l2.5.4zM555.8 357.7c0 9.6-3.9 14.8-8.3 14.8-2.7 0-4.7-2.2-4.7-6.7 0-7.3 6.1-10.5 13-12.9v4.8zm11.5 5.3c-.2 6.2-.8 8.1-2.5 8.1-1.2 0-1.8-1.1-1.8-3.6v-23.8c0-6.4-3.6-10.7-13.2-10.7-7.4 0-12.8 4.6-12.8 10.4 0 3.4 1.7 5.1 4.1 5.1 2.4 0 4.2-1.9 4.2-5 0-2.5-.8-4.5-3.5-4.8 1.8-2.1 4.2-3.1 7.2-3.1 4.5 0 6.8 2.1 6.8 7v7c-7.3 2.7-20.8 6.7-20.8 16.4 0 5.6 3.8 9.6 10.4 9.6 6 0 8.5-2.8 10.6-6.7h.2c.5 4.6 2.8 6.7 6.9 6.7 5.2 0 7-3.8 7-12.8l-2.8.2zM571 374.6v-2.7c3.6-.2 4.9-1.7 4.9-4.3v-23.2c0-5.8-1-7.7-5.3-7.8v-2.7l11.7-.5v9.8h.2c1.1-4.4 4.1-10.3 9.2-10.3 3.1 0 6.2 2.6 6.2 7.4 0 3.7-1.8 5.5-4 5.5-1.9 0-3.8-1.2-3.8-5 0-2.1 1.2-4.2 3.6-4.2-.4-.7-1.3-1-2.2-1-5.7.1-8.3 12.6-8.3 20v12.1c0 2.6 1.3 4.1 7.1 4.3v2.7H571zM606.2 350.9c0-11 3.2-15.3 8.1-15.3 4.5 0 7.1 4.3 7.1 15.3h-15.2zm23.4 3.2c0-12.4-5.9-21.2-15.3-21.2-9.6 0-16.3 8.9-16.3 21.5 0 10.6 6.9 21.3 17.5 21.3 9.5 0 13.6-7.4 14.4-14.9l-2.7-.5c-.8 5.8-3.5 12.2-10.9 12.2-5.7 0-10-6.4-10-18.3h23.3zM632.7 323.8c3 0 5.4 2.4 5.4 5.4 0 3-2.4 5.4-5.4 5.4-3 0-5.4-2.4-5.4-5.4 0-3 2.4-5.4 5.4-5.4m0-.9c-3.5 0-6.4 2.8-6.4 6.3s2.8 6.4 6.4 6.4c3.5 0 6.3-2.8 6.3-6.4 0-3.5-2.9-6.3-6.3-6.3m-1.2 6.7h1.2c.3 0 1 0 1.1.8.1 1 0 1.9.3 2.4h1.2c-.2-.5-.3-1.6-.3-1.9 0-1.5-.4-1.8-1.3-1.8.9-.2 1.6-.8 1.6-1.7 0-.9-.6-1.8-2-1.8h-2.9v7.3h1.2v-3.3zm0-3.2h1.5c.8 0 1.1.6 1.1 1.1 0 .6-.3 1.2-1.1 1.2h-1.5v-2.3zM25.3 374.5H27.2c.1 0 .2 0 .3-.1h.1c.1 0 .2 0 .3-.1 0 0 .1 0 .1-.1.1 0 .2-.1.3-.1 0 0 .1 0 .1-.1.1 0 .2-.1.3-.1.1 0 .1 0 .1-.1.1 0 .2-.1.3-.1 0 0 .1 0 .1-.1.1-.1.2-.1.3-.2 0 0 .1 0 .1-.1.1 0 .2-.1.3-.2l.1-.1c.1-.1.2-.1.3-.2l.1-.1c.1-.1.2-.1.3-.2 0 0 .1-.1.2-.1l.3-.3c.1 0 .1-.1.1-.1l.3-.3.2-.2.3-.3.2-.2.3-.3.2-.2.3-.3.2-.2c.1-.1.2-.2.3-.4.1-.1.1-.2.2-.2.1-.1.2-.3.3-.4.1-.1.1-.2.2-.3.1-.1.2-.3.3-.4.1-.1.1-.2.2-.3.1-.1.2-.3.3-.4.1-.1.1-.2.2-.3.1-.2.2-.3.3-.5.1-.1.1-.2.2-.4s.2-.3.3-.5c.1-.1.1-.3.2-.4.1-.2.2-.3.2-.5.1-.2.1-.3.2-.5s.1-.3.2-.5.1-.3.2-.5.1-.4.2-.5c.1-.2.1-.3.2-.5s.2-.4.2-.6c.1-.2.2-.5.2-.7 0-.2.1-.3.1-.4.1-.4.2-.8.4-1.2 1.7-6.1 2.1-18.4 2.1-26.5v-52.2L15 294.5v53.8c0 20.5 3.7 25.4 8.3 26.3h-.1l2.1-.1z"/><path class="st1" d="M31.7 380.1c10.1-1.3 15.9-12.5 17.3-18 2.2-7.6 2.7-17 2.7-27.6V275l-10.8 5.8 5.7 1.3v47.7c0 12.3-.3 23.1-2.3 30.2-2.8 10.1-7.9 14.2-11.5 15.5l-9.1-1h-.1c1 2.9 3.2 5.1 5.8 5.5l2.3.1z"/><path class="st1" d="M29.4 379.9c.9 2.4 3.2 4.6 5.7 5.1l2.3.2c10.5-.1 17.4-10.3 19.8-15.7 3.6-8 5.3-19.3 5.3-35.5v-64.9L51.6 275l5.8 1.3v55.4c0 13.8-.6 25.6-3.9 34.3-2.9 7.5-8.2 13.4-14.7 15l-7.1-.8-2.3-.3z"/><path class="st1" d="m62.5 269.1 5.9 1.3v61.2c0 18.8-1.9 31.6-6.1 40.3-3.9 8.1-10.5 13.3-16.8 14.4l-8.1-1-2.3-.2c2 3.3 5.4 5 9.1 5.2 5.1.2 9.2-2 13.1-4.6 12.4-8.6 16.3-27.7 16.3-53.6v-69l-11.1 6z"/></svg>